<svg width="643" height="626" viewBox="0 0 643 626" fill="none" xmlns="http://www.w3.org/2000/svg">
<path d="M279.56 546.934C287.74 539.407 297.968 534.475 308.951 532.761C319.934 531.048 331.178 532.629 341.262 537.306C351.346 541.983 359.817 549.545 365.603 559.036C371.389 568.527 374.231 579.521 373.769 590.627C373.307 601.733 369.562 612.453 363.008 621.431C356.454 630.409 347.384 637.241 336.947 641.065C326.509 644.888 315.172 645.531 304.37 642.911C293.567 640.291 283.784 634.527 276.257 626.347C271.249 620.921 267.362 614.56 264.817 607.629C262.272 600.698 261.12 593.332 261.426 585.955C261.733 578.577 263.493 571.333 266.605 564.637C269.716 557.941 274.119 551.925 279.56 546.934Z" fill="url(#paint0_linear_122_7681)" fill-opacity="0.07"/>
<path d="M376.305 656.435C382.853 649.618 391.276 644.896 400.508 642.868C409.74 640.839 419.367 641.594 428.17 645.038C436.972 648.482 444.556 654.46 449.96 662.215C455.364 669.97 458.347 679.154 458.53 688.605C458.713 698.056 456.088 707.348 450.988 715.307C445.888 723.266 438.542 729.533 429.88 733.315C421.217 737.097 411.627 738.225 402.323 736.555C393.019 734.885 384.42 730.493 377.613 723.935C373.089 719.592 369.467 714.399 366.953 708.655C364.438 702.91 363.082 696.726 362.96 690.456C362.839 684.187 363.955 677.955 366.245 672.117C368.535 666.279 371.954 660.95 376.305 656.435Z" fill="url(#paint1_linear_122_7681)" fill-opacity="0.07"/>
<path d="M169.273 427.078C178.682 418.42 190.448 412.748 203.081 410.779C215.714 408.81 228.648 410.633 240.245 416.016C251.843 421.399 261.583 430.102 268.233 441.022C274.883 451.942 278.145 464.59 277.605 477.364C277.065 490.139 272.749 502.466 265.201 512.787C257.654 523.107 247.215 530.957 235.205 535.343C223.195 539.729 210.153 540.455 197.731 537.427C185.309 534.4 174.064 527.756 165.419 518.335C159.674 512.093 155.217 504.779 152.302 496.813C149.387 488.846 148.07 480.383 148.428 471.908C148.786 463.432 150.812 455.11 154.389 447.418C157.965 439.726 163.023 432.814 169.273 427.078Z" fill="url(#paint2_linear_122_7681)" fill-opacity="0.07"/>
<path d="M415.972 421.414C424.152 413.887 434.38 408.955 445.363 407.242C456.346 405.528 467.59 407.11 477.674 411.786C487.758 416.463 496.229 424.025 502.015 433.517C507.801 443.008 510.643 454.001 510.181 465.107C509.719 476.214 505.974 486.933 499.42 495.911C492.866 504.889 483.796 511.722 473.359 515.545C462.921 519.368 451.584 520.011 440.782 517.391C429.979 514.772 420.196 509.007 412.669 500.827C407.662 495.401 403.774 489.041 401.229 482.109C398.684 475.178 397.532 467.813 397.839 460.435C398.145 453.058 399.905 445.814 403.017 439.118C406.128 432.422 410.531 426.405 415.972 421.414Z" fill="url(#paint3_linear_122_7681)" fill-opacity="0.07"/>
<path d="M512.716 530.916C519.263 524.098 527.686 519.377 536.918 517.348C546.151 515.319 555.777 516.075 564.58 519.519C573.383 522.963 580.966 528.941 586.37 536.696C591.774 544.451 594.757 553.635 594.94 563.085C595.123 572.536 592.498 581.829 587.398 589.787C582.299 597.746 574.953 604.013 566.29 607.795C557.627 611.578 548.037 612.705 538.733 611.036C529.429 609.366 520.83 604.974 514.023 598.415C509.5 594.072 505.877 588.88 503.363 583.135C500.849 577.39 499.492 571.206 499.37 564.937C499.249 558.667 500.365 552.435 502.655 546.597C504.945 540.76 508.364 535.431 512.716 530.916Z" fill="url(#paint4_linear_122_7681)" fill-opacity="0.07"/>
<path d="M600.731 625.445C606.15 619.866 613.1 616.019 620.705 614.388C628.309 612.757 636.226 613.415 643.456 616.281C650.686 619.147 656.904 624.09 661.326 630.488C665.749 636.885 668.176 644.45 668.302 652.226C668.428 660.002 666.247 667.641 662.034 674.178C657.821 680.715 651.766 685.858 644.632 688.956C637.499 692.054 629.607 692.969 621.954 691.585C614.301 690.201 607.23 686.58 601.634 681.18C597.907 677.584 594.927 673.288 592.864 668.538C590.801 663.788 589.696 658.677 589.612 653.5C589.528 648.322 590.467 643.178 592.375 638.364C594.283 633.55 597.123 629.159 600.731 625.445Z" fill="url(#paint5_linear_122_7681)" fill-opacity="0.07"/>
<path d="M305.686 301.558C315.094 292.901 326.86 287.229 339.493 285.26C352.127 283.291 365.06 285.113 376.657 290.496C388.255 295.88 397.995 304.582 404.645 315.502C411.295 326.423 414.557 339.07 414.017 351.845C413.477 364.619 409.161 376.946 401.613 387.267C394.066 397.588 383.627 405.438 371.617 409.824C359.607 414.21 346.566 414.935 334.143 411.908C321.721 408.88 310.476 402.236 301.831 392.816C296.087 386.573 291.629 379.26 288.714 371.293C285.799 363.327 284.483 354.864 284.841 346.388C285.199 337.912 287.224 329.59 290.801 321.898C294.377 314.206 299.435 307.294 305.686 301.558Z" fill="url(#paint6_linear_122_7681)" fill-opacity="0.07"/>
<path d="M183.971 169.28C194.607 159.494 207.905 153.082 222.185 150.856C236.465 148.63 251.085 150.69 264.194 156.774C277.303 162.859 288.313 172.695 295.831 185.038C303.348 197.382 307.036 211.677 306.427 226.117C305.818 240.556 300.94 254.491 292.41 266.158C283.88 277.824 272.081 286.698 258.506 291.658C244.931 296.617 230.191 297.439 216.149 294.018C202.107 290.598 189.395 283.09 179.621 272.443C173.128 265.386 168.089 257.119 164.793 248.113C161.497 239.108 160.009 229.541 160.413 219.96C160.817 210.379 163.106 200.971 167.148 192.275C171.19 183.579 176.907 175.765 183.971 169.28Z" fill="url(#paint7_linear_122_7681)" fill-opacity="0.07"/>
<path d="M552.322 295.952C560.493 288.41 570.718 283.462 581.702 281.734C592.686 280.005 603.936 281.573 614.029 286.24C624.121 290.907 632.603 298.463 638.4 307.952C644.197 317.441 647.049 328.436 646.595 339.546C646.141 350.656 642.402 361.382 635.851 370.366C629.299 379.351 620.23 386.19 609.791 390.018C599.351 393.847 588.011 394.493 577.204 391.874C566.398 389.256 556.61 383.49 549.081 375.308C544.078 369.887 540.193 363.533 537.648 356.61C535.103 349.686 533.948 342.328 534.249 334.958C534.55 327.587 536.301 320.349 539.402 313.656C542.504 306.962 546.894 300.946 552.322 295.952Z" fill="url(#paint8_linear_122_7681)" fill-opacity="0.07"/>
<path d="M649.134 405.392C655.682 398.574 664.105 393.853 673.337 391.824C682.569 389.795 692.195 390.551 700.998 393.995C709.801 397.439 717.384 403.416 722.788 411.172C728.193 418.927 731.175 428.111 731.358 437.561C731.541 447.012 728.917 456.305 723.817 464.263C718.717 472.222 711.371 478.489 702.708 482.271C694.045 486.054 684.455 487.181 675.151 485.512C665.848 483.842 657.248 479.45 650.441 472.891C641.326 464.109 636.069 452.068 635.824 439.412C635.578 426.756 640.366 414.521 649.134 405.392Z" fill="url(#paint9_linear_122_7681)" fill-opacity="0.07"/>
<path d="M442.038 176.097C451.438 167.425 463.2 161.737 475.834 159.752C488.469 157.768 501.408 159.578 513.014 164.951C524.62 170.325 534.371 179.021 541.032 189.939C547.693 200.857 550.964 213.506 550.433 226.284C549.902 239.062 545.591 251.396 538.046 261.723C530.502 272.05 520.063 279.907 508.051 284.298C496.039 288.689 482.994 289.418 470.568 286.392C458.141 283.365 446.892 276.72 438.245 267.297C426.654 254.7 420.542 238.015 421.253 220.912C421.964 203.808 429.441 187.688 442.038 176.097Z" fill="url(#paint10_linear_122_7681)" fill-opacity="0.07"/>
<defs>
<linearGradient id="paint0_linear_122_7681" x1="355.671" y1="629.65" x2="279.56" y2="546.934" gradientUnits="userSpaceOnUse">
<stop stop-color="#E52D27"/>
<stop offset="1" stop-color="#B31217"/>
</linearGradient>
<linearGradient id="paint1_linear_122_7681" x1="443.11" y1="724.689" x2="378.411" y2="654.375" gradientUnits="userSpaceOnUse">
<stop stop-color="#E52D27"/>
<stop offset="1" stop-color="#B31217"/>
</linearGradient>
<linearGradient id="paint2_linear_122_7681" x1="256.795" y1="522.195" x2="169.273" y2="427.078" gradientUnits="userSpaceOnUse">
<stop stop-color="#E52D27"/>
<stop offset="1" stop-color="#B31217"/>
</linearGradient>
<linearGradient id="paint3_linear_122_7681" x1="492.083" y1="504.13" x2="415.972" y2="421.414" gradientUnits="userSpaceOnUse">
<stop stop-color="#E52D27"/>
<stop offset="1" stop-color="#B31217"/>
</linearGradient>
<linearGradient id="paint4_linear_122_7681" x1="579.521" y1="599.17" x2="514.821" y2="528.855" gradientUnits="userSpaceOnUse">
<stop stop-color="#E52D27"/>
<stop offset="1" stop-color="#B31217"/>
</linearGradient>
<linearGradient id="paint5_linear_122_7681" x1="655.601" y1="681.819" x2="602.312" y2="623.906" gradientUnits="userSpaceOnUse">
<stop stop-color="#E52D27"/>
<stop offset="1" stop-color="#B31217"/>
</linearGradient>
<linearGradient id="paint6_linear_122_7681" x1="393.207" y1="396.676" x2="305.685" y2="301.558" gradientUnits="userSpaceOnUse">
<stop stop-color="#E52D27"/>
<stop offset="1" stop-color="#B31217"/>
</linearGradient>
<linearGradient id="paint7_linear_122_7681" x1="282.904" y1="276.798" x2="183.971" y2="169.28" gradientUnits="userSpaceOnUse">
<stop stop-color="#E52D27"/>
<stop offset="1" stop-color="#B31217"/>
</linearGradient>
<linearGradient id="paint8_linear_122_7681" x1="628.495" y1="378.611" x2="552.384" y2="295.895" gradientUnits="userSpaceOnUse">
<stop stop-color="#E52D27"/>
<stop offset="1" stop-color="#B31217"/>
</linearGradient>
<linearGradient id="paint9_linear_122_7681" x1="715.941" y1="473.644" x2="651.241" y2="403.329" gradientUnits="userSpaceOnUse">
<stop stop-color="#E52D27"/>
<stop offset="1" stop-color="#B31217"/>
</linearGradient>
<linearGradient id="paint10_linear_122_7681" x1="529.621" y1="271.157" x2="442.1" y2="176.04" gradientUnits="userSpaceOnUse">
<stop stop-color="#E52D27"/>
<stop offset="1" stop-color="#B31217"/>
</linearGradient>
</defs>
</svg>
