<svg width="701" height="490" viewBox="0 0 701 490" fill="none" xmlns="http://www.w3.org/2000/svg">
<circle cx="136.683" cy="495.386" r="51.0521" transform="rotate(-134.739 136.683 495.386)" fill="#DE2336" fill-opacity="0.05"/>
<circle cx="43.2545" cy="401.101" r="61.2625" transform="rotate(-134.739 43.2545 401.101)" fill="#DE2336" fill-opacity="0.05"/>
<circle cx="-78.9228" cy="277.804" r="71.4729" transform="rotate(-134.739 -78.9228 277.804)" fill="#DE2336" fill-opacity="0.05"/>
<circle cx="425.342" cy="525.583" r="30.6313" transform="rotate(-134.739 425.342 525.583)" fill="#DE2336" fill-opacity="0.05"/>
<circle cx="360.66" cy="460.308" r="40.8417" transform="rotate(-134.739 360.66 460.308)" fill="#DE2336" fill-opacity="0.05"/>
<circle cx="281.605" cy="380.529" r="51.0521" transform="rotate(-134.739 281.605 380.529)" fill="#DE2336" fill-opacity="0.05"/>
<circle cx="188.175" cy="286.243" r="61.2625" transform="rotate(-134.739 188.175 286.243)" fill="#DE2336" fill-opacity="0.05"/>
<circle cx="80.3721" cy="177.452" r="71.4729" transform="rotate(-134.739 80.3721 177.452)" fill="#DE2336" fill-opacity="0.05"/>
<circle cx="627.758" cy="468.746" r="10.2104" transform="rotate(-134.739 627.758 468.746)" fill="#DE2336" fill-opacity="0.05"/>
<circle cx="591.825" cy="432.483" r="20.4208" transform="rotate(-134.739 591.825 432.483)" fill="#DE2336" fill-opacity="0.05"/>
<circle cx="541.518" cy="381.713" r="30.6313" transform="rotate(-134.739 541.518 381.713)" fill="#DE2336" fill-opacity="0.05"/>
<circle cx="476.835" cy="316.44" r="40.8417" transform="rotate(-134.739 476.835 316.44)" fill="#DE2336" fill-opacity="0.05"/>
<circle cx="397.78" cy="236.659" r="51.0521" transform="rotate(-134.739 397.78 236.659)" fill="#DE2336" fill-opacity="0.05"/>
<circle cx="304.351" cy="142.374" r="61.2625" transform="rotate(-134.739 304.351 142.374)" fill="#DE2336" fill-opacity="0.05"/>
<circle cx="182.176" cy="19.0769" r="71.4729" transform="rotate(-134.739 182.176 19.0769)" fill="#DE2336" fill-opacity="0.05"/>
</svg>
