<svg width="1600" height="663" viewBox="0 0 1600 663" fill="none" xmlns="http://www.w3.org/2000/svg">
<g clip-path="url(#clip0_122_7678)">
<rect width="1600" height="663" fill="#0E0E0E"/>
<rect width="1600" height="663" fill="#222222"/>
<g filter="url(#filter0_f_122_7678)">
<ellipse cx="1622.5" cy="596.5" rx="256.5" ry="65.5" fill="#F52626"/>
</g>
<path d="M1236.56 583.934C1244.74 576.407 1254.97 571.475 1265.95 569.761C1276.93 568.048 1288.18 569.629 1298.26 574.306C1308.35 578.983 1316.82 586.545 1322.6 596.036C1328.39 605.527 1331.23 616.521 1330.77 627.627C1330.31 638.733 1326.56 649.453 1320.01 658.431C1313.45 667.409 1304.38 674.241 1293.95 678.065C1283.51 681.888 1272.17 682.531 1261.37 679.911C1250.57 677.291 1240.78 671.527 1233.26 663.347C1228.25 657.921 1224.36 651.56 1221.82 644.629C1219.27 637.698 1218.12 630.332 1218.43 622.955C1218.73 615.577 1220.49 608.333 1223.6 601.637C1226.72 594.941 1231.12 588.925 1236.56 583.934Z" fill="url(#paint0_linear_122_7678)" fill-opacity="0.07"/>
<path d="M1333.31 693.435C1339.85 686.618 1348.28 681.896 1357.51 679.868C1366.74 677.839 1376.37 678.594 1385.17 682.038C1393.97 685.482 1401.56 691.46 1406.96 699.215C1412.36 706.97 1415.35 716.154 1415.53 725.605C1415.71 735.056 1413.09 744.348 1407.99 752.307C1402.89 760.266 1395.54 766.533 1386.88 770.315C1378.22 774.097 1368.63 775.225 1359.32 773.555C1350.02 771.885 1341.42 767.493 1334.61 760.935C1330.09 756.592 1326.47 751.399 1323.95 745.655C1321.44 739.91 1320.08 733.726 1319.96 727.456C1319.84 721.187 1320.96 714.955 1323.24 709.117C1325.53 703.279 1328.95 697.95 1333.31 693.435Z" fill="url(#paint1_linear_122_7678)" fill-opacity="0.07"/>
<path d="M1126.27 464.078C1135.68 455.42 1147.45 449.748 1160.08 447.779C1172.71 445.81 1185.65 447.633 1197.25 453.016C1208.84 458.399 1218.58 467.102 1225.23 478.022C1231.88 488.942 1235.14 501.59 1234.6 514.364C1234.07 527.139 1229.75 539.466 1222.2 549.787C1214.65 560.107 1204.21 567.957 1192.2 572.343C1180.19 576.729 1167.15 577.455 1154.73 574.427C1142.31 571.4 1131.06 564.756 1122.42 555.335C1116.67 549.093 1112.22 541.779 1109.3 533.813C1106.39 525.846 1105.07 517.383 1105.43 508.908C1105.79 500.432 1107.81 492.11 1111.39 484.418C1114.97 476.726 1120.02 469.814 1126.27 464.078Z" fill="url(#paint2_linear_122_7678)" fill-opacity="0.07"/>
<path d="M1372.97 458.414C1381.15 450.887 1391.38 445.955 1402.36 444.242C1413.35 442.528 1424.59 444.11 1434.67 448.786C1444.76 453.463 1453.23 461.025 1459.01 470.517C1464.8 480.008 1467.64 491.001 1467.18 502.107C1466.72 513.214 1462.97 523.933 1456.42 532.911C1449.87 541.889 1440.8 548.722 1430.36 552.545C1419.92 556.368 1408.58 557.011 1397.78 554.391C1386.98 551.772 1377.2 546.007 1369.67 537.827C1364.66 532.401 1360.77 526.041 1358.23 519.109C1355.68 512.178 1354.53 504.813 1354.84 497.435C1355.15 490.058 1356.91 482.814 1360.02 476.118C1363.13 469.422 1367.53 463.405 1372.97 458.414Z" fill="url(#paint3_linear_122_7678)" fill-opacity="0.07"/>
<path d="M1469.72 567.916C1476.26 561.098 1484.69 556.377 1493.92 554.348C1503.15 552.319 1512.78 553.075 1521.58 556.519C1530.38 559.963 1537.97 565.941 1543.37 573.696C1548.77 581.451 1551.76 590.635 1551.94 600.085C1552.12 609.536 1549.5 618.829 1544.4 626.787C1539.3 634.746 1531.95 641.013 1523.29 644.795C1514.63 648.578 1505.04 649.705 1495.73 648.036C1486.43 646.366 1477.83 641.974 1471.02 635.415C1466.5 631.072 1462.88 625.88 1460.36 620.135C1457.85 614.39 1456.49 608.206 1456.37 601.937C1456.25 595.667 1457.37 589.435 1459.66 583.597C1461.95 577.76 1465.36 572.431 1469.72 567.916Z" fill="url(#paint4_linear_122_7678)" fill-opacity="0.07"/>
<path d="M1557.73 662.445C1563.15 656.866 1570.1 653.019 1577.7 651.388C1585.31 649.757 1593.23 650.415 1600.46 653.281C1607.69 656.147 1613.9 661.09 1618.33 667.488C1622.75 673.885 1625.18 681.45 1625.3 689.226C1625.43 697.002 1623.25 704.641 1619.03 711.178C1614.82 717.715 1608.77 722.858 1601.63 725.956C1594.5 729.054 1586.61 729.969 1578.95 728.585C1571.3 727.201 1564.23 723.58 1558.63 718.18C1554.91 714.584 1551.93 710.288 1549.86 705.538C1547.8 700.788 1546.7 695.677 1546.61 690.5C1546.53 685.322 1547.47 680.178 1549.38 675.364C1551.28 670.55 1554.12 666.159 1557.73 662.445Z" fill="url(#paint5_linear_122_7678)" fill-opacity="0.07"/>
<path d="M1262.69 338.558C1272.09 329.901 1283.86 324.229 1296.49 322.26C1309.13 320.291 1322.06 322.113 1333.66 327.496C1345.25 332.88 1354.99 341.582 1361.64 352.502C1368.3 363.423 1371.56 376.07 1371.02 388.845C1370.48 401.619 1366.16 413.946 1358.61 424.267C1351.07 434.588 1340.63 442.438 1328.62 446.824C1316.61 451.21 1303.57 451.935 1291.14 448.908C1278.72 445.88 1267.48 439.236 1258.83 429.816C1253.09 423.573 1248.63 416.26 1245.71 408.293C1242.8 400.327 1241.48 391.864 1241.84 383.388C1242.2 374.912 1244.22 366.59 1247.8 358.898C1251.38 351.206 1256.44 344.294 1262.69 338.558Z" fill="url(#paint6_linear_122_7678)" fill-opacity="0.07"/>
<path d="M1140.97 206.28C1151.61 196.494 1164.91 190.082 1179.19 187.856C1193.47 185.63 1208.08 187.69 1221.19 193.774C1234.3 199.859 1245.31 209.695 1252.83 222.038C1260.35 234.382 1264.04 248.677 1263.43 263.117C1262.82 277.556 1257.94 291.491 1249.41 303.158C1240.88 314.824 1229.08 323.698 1215.51 328.658C1201.93 333.617 1187.19 334.439 1173.15 331.018C1159.11 327.598 1146.39 320.09 1136.62 309.443C1130.13 302.386 1125.09 294.119 1121.79 285.113C1118.5 276.108 1117.01 266.541 1117.41 256.96C1117.82 247.379 1120.11 237.971 1124.15 229.275C1128.19 220.579 1133.91 212.765 1140.97 206.28Z" fill="url(#paint7_linear_122_7678)" fill-opacity="0.07"/>
<path d="M1509.32 332.952C1517.49 325.41 1527.72 320.462 1538.7 318.734C1549.69 317.005 1560.94 318.573 1571.03 323.24C1581.12 327.907 1589.6 335.463 1595.4 344.952C1601.2 354.441 1604.05 365.436 1603.59 376.546C1603.14 387.656 1599.4 398.382 1592.85 407.366C1586.3 416.351 1577.23 423.19 1566.79 427.018C1556.35 430.847 1545.01 431.493 1534.2 428.874C1523.4 426.256 1513.61 420.49 1506.08 412.308C1501.08 406.887 1497.19 400.533 1494.65 393.61C1492.1 386.686 1490.95 379.328 1491.25 371.958C1491.55 364.587 1493.3 357.349 1496.4 350.656C1499.5 343.962 1503.89 337.946 1509.32 332.952Z" fill="url(#paint8_linear_122_7678)" fill-opacity="0.07"/>
<path d="M1606.13 442.392C1612.68 435.574 1621.1 430.853 1630.34 428.824C1639.57 426.795 1649.2 427.551 1658 430.995C1666.8 434.439 1674.38 440.416 1679.79 448.172C1685.19 455.927 1688.17 465.111 1688.36 474.561C1688.54 484.012 1685.92 493.305 1680.82 501.263C1675.72 509.222 1668.37 515.489 1659.71 519.271C1651.05 523.054 1641.46 524.181 1632.15 522.512C1622.85 520.842 1614.25 516.45 1607.44 509.891C1598.33 501.109 1593.07 489.068 1592.82 476.412C1592.58 463.756 1597.37 451.521 1606.13 442.392Z" fill="url(#paint9_linear_122_7678)" fill-opacity="0.07"/>
<path d="M1399.04 213.097C1408.44 204.425 1420.2 198.737 1432.83 196.752C1445.47 194.768 1458.41 196.578 1470.01 201.951C1481.62 207.325 1491.37 216.021 1498.03 226.939C1504.69 237.857 1507.96 250.506 1507.43 263.284C1506.9 276.062 1502.59 288.396 1495.05 298.723C1487.5 309.05 1477.06 316.907 1465.05 321.298C1453.04 325.689 1439.99 326.418 1427.57 323.392C1415.14 320.365 1403.89 313.72 1395.24 304.297C1383.65 291.7 1377.54 275.015 1378.25 257.912C1378.96 240.808 1386.44 224.688 1399.04 213.097Z" fill="url(#paint10_linear_122_7678)" fill-opacity="0.07"/>
<g filter="url(#filter1_f_122_7678)">
<ellipse cx="154" cy="661.5" rx="274" ry="57.5" fill="#F52626"/>
</g>
<circle cx="399.999" cy="342.782" r="177.435" stroke="url(#paint11_linear_122_7678)" stroke-opacity="0.05" stroke-width="4.6087"/>
<circle cx="399.998" cy="342.783" r="66.8261" stroke="url(#paint12_linear_122_7678)" stroke-opacity="0.05" stroke-width="4.6087"/>
<circle cx="400" cy="342.782" r="25.3478" stroke="url(#paint13_linear_122_7678)" stroke-opacity="0.05" stroke-width="4.6087"/>
<circle cx="446.087" cy="342.783" r="2.30435" stroke="url(#paint14_linear_122_7678)" stroke-opacity="0.05" stroke-width="4.6087"/>
<circle cx="399.997" cy="388.869" r="2.30435" stroke="url(#paint15_linear_122_7678)" stroke-opacity="0.05" stroke-width="4.6087"/>
<circle cx="353.915" cy="342.783" r="2.30435" stroke="url(#paint16_linear_122_7678)" stroke-opacity="0.05" stroke-width="4.6087"/>
<circle cx="399.997" cy="301.304" r="2.30435" stroke="url(#paint17_linear_122_7678)" stroke-opacity="0.05" stroke-width="4.6087"/>
<mask id="path-22-inside-1_122_7678" fill="white">
<path d="M612 352C612 324.16 606.516 296.592 595.862 270.871C585.208 245.15 569.593 221.779 549.907 202.093C530.221 182.407 506.85 166.792 481.129 156.138C455.408 145.484 427.84 140 400 140L400 196.978C420.358 196.978 440.516 200.988 459.324 208.778C478.133 216.569 495.222 227.988 509.617 242.383C524.012 256.778 535.431 273.867 543.222 292.676C551.012 311.484 555.022 331.642 555.022 352H612Z"/>
</mask>
<path d="M612 352C612 324.16 606.516 296.592 595.862 270.871C585.208 245.15 569.593 221.779 549.907 202.093C530.221 182.407 506.85 166.792 481.129 156.138C455.408 145.484 427.84 140 400 140L400 196.978C420.358 196.978 440.516 200.988 459.324 208.778C478.133 216.569 495.222 227.988 509.617 242.383C524.012 256.778 535.431 273.867 543.222 292.676C551.012 311.484 555.022 331.642 555.022 352H612Z" fill="#222222" stroke="url(#paint18_linear_122_7678)" stroke-opacity="0.05" stroke-width="9.21739" mask="url(#path-22-inside-1_122_7678)"/>
<path d="M289.586 285.236C299.926 267.398 328.203 229.03 358.588 218.254" stroke="url(#paint19_linear_122_7678)" stroke-opacity="0.05" stroke-width="1.52643"/>
<path d="M337.531 468.316C321.386 455.493 287.534 421.94 281.29 390.312" stroke="url(#paint20_linear_122_7678)" stroke-opacity="0.05" stroke-width="1.52643"/>
<path d="M523.048 406.474C510.947 423.168 478.915 458.462 447.591 466.091" stroke="url(#paint21_linear_122_7678)" stroke-opacity="0.05" stroke-width="1.52643"/>
<path d="M476.1 231.722C489.056 247.761 514.764 287.895 513.951 320.124" stroke="url(#paint22_linear_122_7678)" stroke-opacity="0.05" stroke-width="1.52643"/>
<path d="M289.586 315.765C299.926 297.928 328.203 259.559 358.588 248.784" stroke="url(#paint23_linear_122_7678)" stroke-opacity="0.05" stroke-width="1.52643"/>
<path d="M367.736 472.754C351.591 459.931 317.739 426.378 311.495 394.749" stroke="url(#paint24_linear_122_7678)" stroke-opacity="0.05" stroke-width="1.52643"/>
<path d="M526.151 376.105C514.051 392.798 482.019 428.092 450.695 435.721" stroke="url(#paint25_linear_122_7678)" stroke-opacity="0.05" stroke-width="1.52643"/>
<path d="M447.592 220.797C460.548 236.836 486.256 276.971 485.444 309.2" stroke="url(#paint26_linear_122_7678)" stroke-opacity="0.05" stroke-width="1.52643"/>
<circle cx="430.904" cy="169.05" r="5.56268" fill="url(#paint27_linear_122_7678)" fill-opacity="0.05"/>
<circle cx="489.002" cy="191.3" r="5.56268" fill="url(#paint28_linear_122_7678)" fill-opacity="0.05"/>
<circle cx="535.977" cy="227.149" r="5.56268" fill="url(#paint29_linear_122_7678)" fill-opacity="0.05"/>
<circle cx="565.645" cy="270.414" r="5.56268" fill="url(#paint30_linear_122_7678)" fill-opacity="0.05"/>
<circle cx="581.715" cy="321.096" r="5.56268" fill="url(#paint31_linear_122_7678)" fill-opacity="0.05"/>
</g>
<defs>
<filter id="filter0_f_122_7678" x="867.215" y="32.2146" width="1510.57" height="1128.57" filterUnits="userSpaceOnUse" color-interpolation-filters="sRGB">
<feFlood flood-opacity="0" result="BackgroundImageFix"/>
<feBlend mode="normal" in="SourceGraphic" in2="BackgroundImageFix" result="shape"/>
<feGaussianBlur stdDeviation="249.393" result="effect1_foregroundBlur_122_7678"/>
</filter>
<filter id="filter1_f_122_7678" x="-618.785" y="105.215" width="1545.57" height="1112.57" filterUnits="userSpaceOnUse" color-interpolation-filters="sRGB">
<feFlood flood-opacity="0" result="BackgroundImageFix"/>
<feBlend mode="normal" in="SourceGraphic" in2="BackgroundImageFix" result="shape"/>
<feGaussianBlur stdDeviation="249.393" result="effect1_foregroundBlur_122_7678"/>
</filter>
<linearGradient id="paint0_linear_122_7678" x1="1312.67" y1="666.65" x2="1236.56" y2="583.934" gradientUnits="userSpaceOnUse">
<stop stop-color="#E52D27"/>
<stop offset="1" stop-color="#B31217"/>
</linearGradient>
<linearGradient id="paint1_linear_122_7678" x1="1400.11" y1="761.689" x2="1335.41" y2="691.375" gradientUnits="userSpaceOnUse">
<stop stop-color="#E52D27"/>
<stop offset="1" stop-color="#B31217"/>
</linearGradient>
<linearGradient id="paint2_linear_122_7678" x1="1213.79" y1="559.195" x2="1126.27" y2="464.078" gradientUnits="userSpaceOnUse">
<stop stop-color="#E52D27"/>
<stop offset="1" stop-color="#B31217"/>
</linearGradient>
<linearGradient id="paint3_linear_122_7678" x1="1449.08" y1="541.13" x2="1372.97" y2="458.414" gradientUnits="userSpaceOnUse">
<stop stop-color="#E52D27"/>
<stop offset="1" stop-color="#B31217"/>
</linearGradient>
<linearGradient id="paint4_linear_122_7678" x1="1536.52" y1="636.17" x2="1471.82" y2="565.855" gradientUnits="userSpaceOnUse">
<stop stop-color="#E52D27"/>
<stop offset="1" stop-color="#B31217"/>
</linearGradient>
<linearGradient id="paint5_linear_122_7678" x1="1612.6" y1="718.819" x2="1559.31" y2="660.906" gradientUnits="userSpaceOnUse">
<stop stop-color="#E52D27"/>
<stop offset="1" stop-color="#B31217"/>
</linearGradient>
<linearGradient id="paint6_linear_122_7678" x1="1350.21" y1="433.676" x2="1262.69" y2="338.558" gradientUnits="userSpaceOnUse">
<stop stop-color="#E52D27"/>
<stop offset="1" stop-color="#B31217"/>
</linearGradient>
<linearGradient id="paint7_linear_122_7678" x1="1239.9" y1="313.798" x2="1140.97" y2="206.28" gradientUnits="userSpaceOnUse">
<stop stop-color="#E52D27"/>
<stop offset="1" stop-color="#B31217"/>
</linearGradient>
<linearGradient id="paint8_linear_122_7678" x1="1585.49" y1="415.611" x2="1509.38" y2="332.895" gradientUnits="userSpaceOnUse">
<stop stop-color="#E52D27"/>
<stop offset="1" stop-color="#B31217"/>
</linearGradient>
<linearGradient id="paint9_linear_122_7678" x1="1672.94" y1="510.644" x2="1608.24" y2="440.329" gradientUnits="userSpaceOnUse">
<stop stop-color="#E52D27"/>
<stop offset="1" stop-color="#B31217"/>
</linearGradient>
<linearGradient id="paint10_linear_122_7678" x1="1486.62" y1="308.157" x2="1399.1" y2="213.04" gradientUnits="userSpaceOnUse">
<stop stop-color="#E52D27"/>
<stop offset="1" stop-color="#B31217"/>
</linearGradient>
<linearGradient id="paint11_linear_122_7678" x1="220.26" y1="342.782" x2="579.738" y2="342.782" gradientUnits="userSpaceOnUse">
<stop stop-color="#E52D27"/>
<stop offset="1" stop-color="#B31217"/>
</linearGradient>
<linearGradient id="paint12_linear_122_7678" x1="330.867" y1="342.783" x2="469.128" y2="342.783" gradientUnits="userSpaceOnUse">
<stop stop-color="#E52D27"/>
<stop offset="1" stop-color="#B31217"/>
</linearGradient>
<linearGradient id="paint13_linear_122_7678" x1="372.348" y1="342.782" x2="427.652" y2="342.782" gradientUnits="userSpaceOnUse">
<stop stop-color="#E52D27"/>
<stop offset="1" stop-color="#B31217"/>
</linearGradient>
<linearGradient id="paint14_linear_122_7678" x1="441.479" y1="342.783" x2="450.696" y2="342.783" gradientUnits="userSpaceOnUse">
<stop stop-color="#E52D27"/>
<stop offset="1" stop-color="#B31217"/>
</linearGradient>
<linearGradient id="paint15_linear_122_7678" x1="395.389" y1="388.869" x2="404.606" y2="388.869" gradientUnits="userSpaceOnUse">
<stop stop-color="#E52D27"/>
<stop offset="1" stop-color="#B31217"/>
</linearGradient>
<linearGradient id="paint16_linear_122_7678" x1="349.307" y1="342.783" x2="358.524" y2="342.783" gradientUnits="userSpaceOnUse">
<stop stop-color="#E52D27"/>
<stop offset="1" stop-color="#B31217"/>
</linearGradient>
<linearGradient id="paint17_linear_122_7678" x1="395.389" y1="301.304" x2="404.606" y2="301.304" gradientUnits="userSpaceOnUse">
<stop stop-color="#E52D27"/>
<stop offset="1" stop-color="#B31217"/>
</linearGradient>
<linearGradient id="paint18_linear_122_7678" x1="188" y1="352" x2="612" y2="352" gradientUnits="userSpaceOnUse">
<stop stop-color="#E52D27"/>
<stop offset="1" stop-color="#B31217"/>
</linearGradient>
<linearGradient id="paint19_linear_122_7678" x1="318.921" y1="246.423" x2="324.087" y2="251.745" gradientUnits="userSpaceOnUse">
<stop stop-color="#E52D27"/>
<stop offset="1" stop-color="#B31217"/>
</linearGradient>
<linearGradient id="paint20_linear_122_7678" x1="303.394" y1="433.652" x2="309.41" y2="429.314" gradientUnits="userSpaceOnUse">
<stop stop-color="#E52D27"/>
<stop offset="1" stop-color="#B31217"/>
</linearGradient>
<linearGradient id="paint21_linear_122_7678" x1="489.918" y1="442.102" x2="485.32" y2="436.282" gradientUnits="userSpaceOnUse">
<stop stop-color="#E52D27"/>
<stop offset="1" stop-color="#B31217"/>
</linearGradient>
<linearGradient id="paint22_linear_122_7678" x1="501.844" y1="273.004" x2="495.026" y2="275.923" gradientUnits="userSpaceOnUse">
<stop stop-color="#E52D27"/>
<stop offset="1" stop-color="#B31217"/>
</linearGradient>
<linearGradient id="paint23_linear_122_7678" x1="318.921" y1="276.953" x2="324.087" y2="282.274" gradientUnits="userSpaceOnUse">
<stop stop-color="#E52D27"/>
<stop offset="1" stop-color="#B31217"/>
</linearGradient>
<linearGradient id="paint24_linear_122_7678" x1="333.599" y1="438.089" x2="339.615" y2="433.751" gradientUnits="userSpaceOnUse">
<stop stop-color="#E52D27"/>
<stop offset="1" stop-color="#B31217"/>
</linearGradient>
<linearGradient id="paint25_linear_122_7678" x1="493.021" y1="411.733" x2="488.423" y2="405.913" gradientUnits="userSpaceOnUse">
<stop stop-color="#E52D27"/>
<stop offset="1" stop-color="#B31217"/>
</linearGradient>
<linearGradient id="paint26_linear_122_7678" x1="473.336" y1="262.079" x2="466.518" y2="264.998" gradientUnits="userSpaceOnUse">
<stop stop-color="#E52D27"/>
<stop offset="1" stop-color="#B31217"/>
</linearGradient>
<linearGradient id="paint27_linear_122_7678" x1="425.342" y1="169.05" x2="436.467" y2="169.05" gradientUnits="userSpaceOnUse">
<stop stop-color="#E52D27"/>
<stop offset="1" stop-color="#B31217"/>
</linearGradient>
<linearGradient id="paint28_linear_122_7678" x1="483.439" y1="191.3" x2="494.565" y2="191.3" gradientUnits="userSpaceOnUse">
<stop stop-color="#E52D27"/>
<stop offset="1" stop-color="#B31217"/>
</linearGradient>
<linearGradient id="paint29_linear_122_7678" x1="530.414" y1="227.149" x2="541.539" y2="227.149" gradientUnits="userSpaceOnUse">
<stop stop-color="#E52D27"/>
<stop offset="1" stop-color="#B31217"/>
</linearGradient>
<linearGradient id="paint30_linear_122_7678" x1="560.082" y1="270.414" x2="571.207" y2="270.414" gradientUnits="userSpaceOnUse">
<stop stop-color="#E52D27"/>
<stop offset="1" stop-color="#B31217"/>
</linearGradient>
<linearGradient id="paint31_linear_122_7678" x1="576.152" y1="321.096" x2="587.278" y2="321.096" gradientUnits="userSpaceOnUse">
<stop stop-color="#E52D27"/>
<stop offset="1" stop-color="#B31217"/>
</linearGradient>
<clipPath id="clip0_122_7678">
<rect width="1600" height="663" fill="white"/>
</clipPath>
</defs>
</svg>
